<?xml version="1.0" standalone="no"?>
<!DOCTYPE svg PUBLIC "-//W3C//DTD SVG 20010904//EN"
 "http://www.w3.org/TR/2001/REC-SVG-20010904/DTD/svg10.dtd">
<svg version="1.0" xmlns="http://www.w3.org/2000/svg"
 width="819.000000pt" height="819.000000pt" viewBox="0 0 819.000000 819.000000"
 preserveAspectRatio="xMidYMid meet">
<metadata>
Created by potrace 1.11, written by Peter Selinger 2001-2013
</metadata>
<g transform="translate(0.000000,819.000000) scale(0.100000,-0.100000)"
fill="#000000" stroke="none">
<path d="M2295 6649 c-695 -72 -1317 -425 -1732 -983 -249 -334 -402 -716
-465 -1161 -18 -133 -16 -483 6 -630 117 -817 616 -1506 1351 -1866 232 -113
418 -173 682 -220 168 -30 489 -37 678 -15 407 47 783 191 1132 433 81 56 95
62 114 52 12 -6 33 -9 46 -6 20 4 57 -16 161 -84 339 -223 705 -357 1084 -398
142 -16 434 -13 578 4 813 101 1536 616 1895 1350 106 218 168 403 211 634 67
366 54 712 -41 1077 -204 781 -795 1421 -1562 1687 -396 138 -845 173 -1253
96 -380 -71 -746 -234 -1038 -461 l-62 -48 -79 60 c-347 264 -789 435 -1240
480 -119 12 -349 11 -466 -1z m3632 -94 c794 -104 1465 -583 1823 -1303 153
-308 227 -614 237 -974 12 -417 -62 -758 -244 -1123 -314 -632 -888 -1085
-1583 -1249 -349 -83 -769 -78 -1123 14 -740 191 -1350 736 -1622 1450 -103
271 -149 533 -149 845 1 382 71 687 239 1030 347 714 1023 1203 1810 1309 141
19 466 20 612 1z m-4013 -1435 c104 -44 167 -106 227 -226 25 -49 144 -322
264 -606 121 -285 220 -516 221 -515 1 1 102 238 224 526 122 289 231 545 242
570 11 26 41 96 67 156 l47 110 55 -4 c29 -1 55 -4 57 -6 4 -3 -83 -209 -466
-1103 -267 -626 -275 -643 -300 -640 -25 3 -46 49 -337 743 -171 407 -326 768
-344 803 -44 88 -104 145 -166 161 -28 7 -56 15 -62 17 -7 2 -13 15 -13 30 l0
27 103 -5 c86 -4 114 -10 181 -38z"/>
<path d="M3460 5112 c0 -16 10 -20 60 -25 80 -7 119 -31 150 -92 l25 -50 3
-772 3 -773 454 0 c298 0 472 4 507 11 82 18 113 57 170 214 58 161 58 159 31
163 -18 3 -27 -7 -50 -55 -39 -82 -123 -164 -198 -194 -58 -23 -70 -24 -372
-27 l-313 -3 0 365 0 366 355 0 355 0 0 55 0 55 -355 0 -355 0 0 341 0 340
308 -3 c299 -3 308 -4 360 -27 90 -40 152 -138 152 -238 0 -29 3 -33 26 -33
l26 0 -4 138 c-3 154 -11 177 -71 226 l-39 31 -614 3 c-596 3 -614 2 -614 -16z"/>
<path d="M5000 5111 c0 -12 3 -21 8 -21 4 0 33 -4 65 -10 82 -13 121 -40 154
-108 l28 -57 3 -757 2 -758 50 0 50 0 2 690 3 691 563 -701 c470 -584 567
-700 587 -700 l25 0 0 875 0 875 -50 0 -50 0 -2 -645 -3 -646 -458 570 c-252
313 -481 590 -508 616 -27 26 -75 58 -107 73 -53 25 -69 27 -209 30 -150 4
-153 3 -153 -17z"/>
</g>
</svg>
